<svg height="512pt" viewBox="0 0 512 512" width="512pt" xmlns="http://www.w3.org/2000/svg"><path d="m15 512h482c8.285156 0 15-6.714844 15-15v-151c0-8.285156-6.714844-15-15-15h-316v-30h45c6.457031 0 12.1875-4.132812 14.230469-10.257812l30-90c1.523437-4.574219.757812-9.601563-2.0625-13.511719-2.820313-3.914063-7.347657-6.230469-12.167969-6.230469h-34.425781c1.628906-8.6875 14.894531-79.429688 16.875-90h17.550781c8.285156 0 15-6.714844 15-15s-6.714844-15-15-15c-9.796875 0-34.726562 0-45 0v-46c0-8.285156-6.714844-15-15-15s-15 6.714844-15 15v46h-90v-46c0-8.285156-6.714844-15-15-15s-15 6.714844-15 15v46c-10.191406 0-35.828125 0-46 0-8.285156 0-15 6.714844-15 15s6.714844 15 15 15h18.550781l16.875 90h-35.425781c-4.847656 0-9.398438 2.34375-12.210938 6.289062-2.8164058 3.949219-3.550781 9.011719-1.972656 13.597657l31 90c2.085938 6.050781 7.78125 10.113281 14.183594 10.113281h45v30h-76c-8.285156 0-15 6.714844-15 15v151c0 8.285156 6.714844 15 15 15zm407-30h-61v-61h61zm-271-391h56.925781l-5.625 30h-51.300781zm45.675781 60-5.625 30h-110.101562l-5.625-30zm-75.675781-60v30h-51.300781l-5.625-30zm-64.300781 180-20.667969-60h199.15625l-20 60zm94.300781 30v30h-30v-30zm-121 60h452v121h-30v-76c0-8.285156-6.714844-15-15-15h-91c-8.285156 0-15 6.714844-15 15v76h-301zm0 0"/><path d="m406 211c8.285156 0 15-6.714844 15-15v-97.5l54-40.5c6.628906-4.96875 7.972656-14.371094 3-21-4.96875-6.628906-14.371094-7.972656-21-3l-109.59375 82.195312-20.800781-20.800781c-5.855469-5.859375-15.351563-5.859375-21.210938 0-5.859375 5.855469-5.859375 15.351563 0 21.210938l30 30c5.285157 5.289062 13.644531 5.867187 19.605469 1.394531l36-27v75c0 8.285156 6.714844 15 15 15zm0 0"/><path d="m286 391h-30c-8.285156 0-15 6.714844-15 15s6.714844 15 15 15h30c8.285156 0 15-6.714844 15-15s-6.714844-15-15-15zm0 0"/><path d="m196 391h-30c-8.285156 0-15 6.714844-15 15s6.714844 15 15 15h30c8.285156 0 15-6.714844 15-15s-6.714844-15-15-15zm0 0"/><path d="m106 391h-30c-8.285156 0-15 6.714844-15 15s6.714844 15 15 15h30c8.285156 0 15-6.714844 15-15s-6.714844-15-15-15zm0 0"/></svg>